<?xml version="1.0" encoding="UTF-8"?>
<svg xmlns="http://www.w3.org/2000/svg" viewBox="0 0 800 300" preserveAspectRatio="xMidYMid slice">
  <defs>
    <radialGradient id="caskHalo" cx="50%" cy="55%" r="65%">
      <stop offset="0%" stop-color="#3D2B1F" />
      <stop offset="55%" stop-color="#1A1208" />
      <stop offset="100%" stop-color="#0F0F0F" />
    </radialGradient>
    <linearGradient id="liquidStreak" x1="0" y1="0" x2="1" y2="0">
      <stop offset="0" stop-color="rgba(255,191,0,0)" />
      <stop offset="0.45" stop-color="rgba(255,191,0,0.55)" />
      <stop offset="1" stop-color="rgba(255,191,0,0)" />
    </linearGradient>
    <filter id="grainHero">
      <feTurbulence type="fractalNoise" baseFrequency="0.85" numOctaves="2" seed="7" />
      <feColorMatrix type="matrix" values="0 0 0 0 0  0 0 0 0 0  0 0 0 0 0  0 0 0 0.05 0" />
    </filter>
  </defs>

  <!-- 暗い背景 -->
  <rect width="800" height="300" fill="url(#caskHalo)" />

  <!-- 中央スポットライト -->
  <ellipse cx="400" cy="170" rx="320" ry="110" fill="#FFBF00" opacity="0.06" />

  <!-- 樽の側面 (横向き楕円) -->
  <ellipse cx="400" cy="150" rx="280" ry="115" fill="none" stroke="rgba(255,191,0,0.30)" stroke-width="1.5" />
  <ellipse cx="400" cy="150" rx="200" ry="78" fill="none" stroke="rgba(255,191,0,0.20)" stroke-width="1.2" />
  <ellipse cx="400" cy="150" rx="120" ry="40" fill="none" stroke="rgba(255,191,0,0.14)" stroke-width="1" />

  <!-- 樽板の縦線 (寿司桶っぽい木目) -->
  <g stroke="rgba(255,191,0,0.18)" stroke-width="0.6">
    <line x1="180" y1="60" x2="180" y2="240" />
    <line x1="260" y1="50" x2="260" y2="250" />
    <line x1="340" y1="42" x2="340" y2="258" />
    <line x1="460" y1="42" x2="460" y2="258" />
    <line x1="540" y1="50" x2="540" y2="250" />
    <line x1="620" y1="60" x2="620" y2="240" />
  </g>
  <line x1="120" y1="150" x2="680" y2="150" stroke="rgba(255,191,0,0.32)" stroke-width="0.8" />

  <!-- 分子模式図 (左側) -->
  <g opacity="0.7">
    <circle cx="180" cy="180" r="3.5" fill="#FFBF00" />
    <circle cx="225" cy="160" r="3.5" fill="#FFBF00" />
    <circle cx="265" cy="190" r="3.5" fill="#FFBF00" />
    <circle cx="310" cy="172" r="3.5" fill="#FFBF00" />
    <line x1="180" y1="180" x2="225" y2="160" stroke="#FFBF00" stroke-width="0.6" />
    <line x1="225" y1="160" x2="265" y2="190" stroke="#FFBF00" stroke-width="0.6" />
    <line x1="265" y1="190" x2="310" y2="172" stroke="#FFBF00" stroke-width="0.6" />
  </g>

  <!-- 分子模式図 (右側) -->
  <g opacity="0.7">
    <circle cx="500" cy="120" r="3.5" fill="#FFBF00" />
    <circle cx="540" cy="138" r="3.5" fill="#FFBF00" />
    <circle cx="580" cy="118" r="3.5" fill="#FFBF00" />
    <circle cx="620" cy="142" r="3.5" fill="#FFBF00" />
    <line x1="500" y1="120" x2="540" y2="138" stroke="#FFBF00" stroke-width="0.6" />
    <line x1="540" y1="138" x2="580" y2="118" stroke="#FFBF00" stroke-width="0.6" />
    <line x1="580" y1="118" x2="620" y2="142" stroke="#FFBF00" stroke-width="0.6" />
  </g>

  <!-- 中央の液体ストリーク (光沢) -->
  <ellipse cx="400" cy="155" rx="280" ry="6" fill="url(#liquidStreak)" />

  <!-- 微細グレイン -->
  <rect width="800" height="300" filter="url(#grainHero)" opacity="0.5" />
</svg>
