<?xml version="1.0" encoding="UTF-8"?>
<svg xmlns="http://www.w3.org/2000/svg" viewBox="0 0 800 500" preserveAspectRatio="xMidYMid slice">
  <defs>
    <radialGradient id="libraryHalo" cx="50%" cy="58%" r="65%">
      <stop offset="0" stop-color="#3D2B1F" />
      <stop offset="0.55" stop-color="#1A1208" />
      <stop offset="1" stop-color="#0F0F0F" />
    </radialGradient>
    <linearGradient id="amberLiquid" x1="0" y1="0" x2="0" y2="1">
      <stop offset="0" stop-color="#FFD15A" />
      <stop offset="1" stop-color="#A06A00" />
    </linearGradient>
    <radialGradient id="bokeh" cx="50%" cy="50%" r="50%">
      <stop offset="0" stop-color="#FFBF00" stop-opacity="0.55" />
      <stop offset="1" stop-color="#FFBF00" stop-opacity="0" />
    </radialGradient>
    <filter id="grainGlass">
      <feTurbulence type="fractalNoise" baseFrequency="0.85" numOctaves="2" seed="11" />
      <feColorMatrix type="matrix" values="0 0 0 0 0  0 0 0 0 0  0 0 0 0 0  0 0 0 0.05 0" />
    </filter>
  </defs>

  <!-- 暗いライブラリ背景 -->
  <rect width="800" height="500" fill="url(#libraryHalo)" />

  <!-- 本棚を匂わせる縦線 -->
  <g opacity="0.07" stroke="#7a5a3a" stroke-width="1.2">
    <line x1="60" y1="0" x2="60" y2="500" />
    <line x1="120" y1="0" x2="120" y2="500" />
    <line x1="680" y1="0" x2="680" y2="500" />
    <line x1="740" y1="0" x2="740" y2="500" />
  </g>
  <g opacity="0.05" stroke="#7a5a3a" stroke-width="1">
    <line x1="0" y1="120" x2="800" y2="120" />
    <line x1="0" y1="380" x2="800" y2="380" />
  </g>

  <!-- ボケライト (遠くのランプ) -->
  <circle cx="160" cy="120" r="60" fill="url(#bokeh)" />
  <circle cx="640" cy="100" r="80" fill="url(#bokeh)" opacity="0.7" />
  <circle cx="700" cy="320" r="40" fill="url(#bokeh)" opacity="0.5" />
  <circle cx="100" cy="380" r="50" fill="url(#bokeh)" opacity="0.55" />

  <!-- グレンケアン グラス (チューリップ型) -->
  <g transform="translate(360 130)">
    <!-- 台座の影 -->
    <ellipse cx="40" cy="288" rx="70" ry="6" fill="rgba(255,191,0,0.15)" />

    <!-- ステム (短い) -->
    <rect x="34" y="240" width="12" height="40" fill="rgba(255,191,0,0.10)" stroke="rgba(255,191,0,0.30)" stroke-width="0.6" />

    <!-- ボウル (チューリップ型) -->
    <path d="M 0 100
             Q 0 80 15 60
             Q 30 30 40 0
             Q 50 30 65 60
             Q 80 80 80 100
             Q 80 200 60 230
             Q 50 245 40 245
             Q 30 245 20 230
             Q 0 200 0 100 Z"
          fill="rgba(255, 191, 0, 0.10)"
          stroke="rgba(255, 191, 0, 0.45)"
          stroke-width="1.2" />

    <!-- 中の琥珀色液体 -->
    <path d="M 6 130 Q 0 200 20 230 Q 30 245 40 245 Q 50 245 60 230 Q 80 200 74 130 Z"
          fill="url(#amberLiquid)"
          opacity="0.85" />

    <!-- 表面のメニスカス (光) -->
    <ellipse cx="40" cy="135" rx="32" ry="5" fill="rgba(255, 255, 255, 0.30)" />

    <!-- ガラスのハイライト -->
    <path d="M 10 110 Q 4 180 22 230"
          fill="none"
          stroke="rgba(255, 255, 255, 0.20)"
          stroke-width="1.5"
          stroke-linecap="round" />
  </g>

  <!-- 中央のスポットライト ハロー -->
  <ellipse cx="400" cy="320" rx="280" ry="100" fill="#FFBF00" opacity="0.05" />

  <!-- 微細グレイン -->
  <rect width="800" height="500" filter="url(#grainGlass)" opacity="0.5" />
</svg>
