<?xml version="1.0" encoding="UTF-8"?>
<svg xmlns="http://www.w3.org/2000/svg" viewBox="0 0 800 1000" preserveAspectRatio="xMidYMid slice">
  <!-- ЧDшОnћo (radial gradient g)KnBЛ%јnєЁ√»й§») -->
  <defs>
    <radialGradient id="bgGlow" cx="50%" cy="62%" r="70%">
      <stop offset="0%" stop-color="#3D2B1F" />
      <stop offset="40%" stop-color="#1A1208" />
      <stop offset="100%" stop-color="#0F0A04" />
    </radialGradient>

    <!-- %јrn¶§є≠ь≤S∞й«ьЈзу -->
    <linearGradient id="whiskyLiquid" x1="0%" y1="0%" x2="0%" y2="100%">
      <stop offset="0%" stop-color="#FFD15A" />
      <stop offset="50%" stop-color="#FFBF00" />
      <stop offset="100%" stop-color="#A06A00" />
    </linearGradient>

    <!-- «≠гуњnђйє (ДDЌ) -->
    <linearGradient id="glassReflect" x1="0%" y1="0%" x2="100%" y2="0%">
      <stop offset="0%" stop-color="rgba(255,255,255,0.05)" />
      <stop offset="35%" stop-color="rgba(255,255,255,0.18)" />
      <stop offset="65%" stop-color="rgba(255,255,255,0.04)" />
      <stop offset="100%" stop-color="rgba(255,255,255,0.10)" />
    </linearGradient>

    <!-- иLМЛ%јnAМ -->
    <linearGradient id="pourStream" x1="0%" y1="0%" x2="0%" y2="100%">
      <stop offset="0%" stop-color="rgba(255,191,0,0.0)" />
      <stop offset="30%" stop-color="rgba(255,191,0,0.85)" />
      <stop offset="100%" stop-color="rgba(255,191,0,1)" />
    </linearGradient>

    <!-- №»а∞мҐ (;bпn’Іь…Ґ¶») -->
    <linearGradient id="bottomFade" x1="0%" y1="0%" x2="0%" y2="100%">
      <stop offset="0%" stop-color="rgba(15,15,15,0)" />
      <stop offset="100%" stop-color="rgba(15,15,15,1)" />
    </linearGradient>

    <!-- Ѓ0j’£ла∞м§у -->
    <filter id="grain">
      <feTurbulence type="fractalNoise" baseFrequency="0.9" numOctaves="2" seed="3" />
      <feColorMatrix type="matrix" values="0 0 0 0 0  0 0 0 0 0  0 0 0 0 0  0 0 0 0.06 0" />
      <feComposite in2="SourceGraphic" operator="in" />
    </filter>
  </defs>

  <!-- ћo -->
  <rect width="800" height="1000" fill="url(#bgGlow)" />

  <!-- (эnшЏТKYKkП[Л&Џ -->
  <g opacity="0.08" stroke="#7a5a3a" stroke-width="1">
    <line x1="60" y1="0" x2="60" y2="1000" />
    <line x1="140" y1="0" x2="140" y2="1000" />
    <line x1="660" y1="0" x2="660" y2="1000" />
    <line x1="740" y1="0" x2="740" y2="1000" />
  </g>
  <g opacity="0.06" stroke="#7a5a3a" stroke-width="1">
    <line x1="0" y1="180" x2="800" y2="180" />
    <line x1="0" y1="360" x2="800" y2="360" />
    <line x1="0" y1="820" x2="800" y2="820" />
  </g>

  <!-- -.nєЁ√»й§»ѕнь -->
  <circle cx="400" cy="620" r="320" fill="#FFBF00" opacity="0.07" />
  <circle cx="400" cy="620" r="180" fill="#FFBF00" opacity="0.10" />

  <!-- «≠гуњ (ЊQfиDgDЛЋу) -->
  <g transform="translate(220 230) rotate(-22 200 200)">
    <!-- ђйє,S -->
    <path d="M 80 60
             L 320 60
             L 310 120
             Q 360 200 360 320
             Q 360 460 200 460
             Q 40 460 40 320
             Q 40 200 90 120
             Z"
          fill="rgba(255, 191, 0, 0.18)"
          stroke="rgba(255, 191, 0, 0.55)"
          stroke-width="2" />
    <!-- Еtn¶§є≠ь≤S -->
    <path d="M 110 220
             Q 360 220 350 320
             Q 350 440 200 440
             Q 50 440 50 320
             Q 40 220 110 220 Z"
          fill="url(#whiskyLiquid)"
          opacity="0.92" />
    <!-- ѕ§й§» -->
    <path d="M 90 130 Q 75 230 90 380"
          fill="none"
          stroke="url(#glassReflect)"
          stroke-width="14"
          stroke-linecap="round" />
    <!-- Ц -->
    <rect x="160" y="0" width="80" height="80" fill="rgba(255,191,0,0.18)" stroke="rgba(255,191,0,0.55)" stroke-width="2" />
    <!-- є»√—ь -->
    <path d="M 150 0 L 250 0 L 240 -40 L 160 -40 Z" fill="rgba(255,191,0,0.30)" stroke="rgba(255,191,0,0.6)" stroke-width="2" />
  </g>

  <!-- иLМfDЛ%јrnє»кьа -->
  <path d="M 470 360
           Q 478 500 460 620
           Q 445 720 470 800"
        fill="none"
        stroke="url(#pourStream)"
        stroke-width="10"
        stroke-linecap="round" />

  <!-- „QЛ∞йє (њу÷йь) -->
  <g transform="translate(380 720)">
    <path d="M 0 0
             L 200 0
             L 180 220
             L 20 220 Z"
          fill="rgba(255,191,0,0.10)"
          stroke="rgba(255,191,0,0.45)"
          stroke-width="2" />
    <!-- ∞йєЕn¶§є≠ь -->
    <path d="M 18 130 L 182 130 L 174 218 L 26 218 Z"
          fill="url(#whiskyLiquid)"
          opacity="0.95" />
    <!-- ѕ§й§» -->
    <path d="M 18 25 L 24 200" stroke="rgba(255,255,255,0.18)" stroke-width="6" stroke-linecap="round" />
  </g>

  <!-- Ќр -->
  <ellipse cx="480" cy="950" rx="220" ry="14" fill="rgba(255,191,0,0.18)" />

  <!-- ’£ла∞м§у -->
  <rect width="800" height="1000" filter="url(#grain)" opacity="0.5" />

  <!-- п’Іь…Ґ¶» (∆≠є»Ђ[ДYO) -->
  <rect x="0" y="650" width="800" height="350" fill="url(#bottomFade)" />
</svg>
